<svg width="70" height="70" viewBox="0 0 70 70" fill="none" xmlns="http://www.w3.org/2000/svg">
<path d="M15 45H5C2.23857 45 0 47.2386 0 50V65C0 67.7614 2.23857 70 5 70H15C17.7614 70 20 67.7614 20 65V50C20 47.2386 17.7614 45 15 45Z" fill="#151515"/>
<path d="M39.9997 25H29.9998C27.2383 25 24.9998 27.2386 24.9998 30V65C24.9998 67.7614 27.2383 70 29.9998 70H39.9997C42.7612 70 44.9997 67.7614 44.9997 65V30C44.9997 27.2386 42.7612 25 39.9997 25Z" fill="#151515"/>
<path d="M65 0H55C52.2386 0 50 2.23857 50 5V65C50 67.7614 52.2386 70 55 70H65C67.7614 70 70 67.7614 70 65V5C70 2.23857 67.7614 0 65 0Z" fill="#151515"/>
</svg>
