<svg width="70" height="70" viewBox="0 0 70 70" fill="none" xmlns="http://www.w3.org/2000/svg">
<path fill-rule="evenodd" clip-rule="evenodd" d="M41.1469 4.59375C39.34 -1.53125 30.66 -1.53125 28.8531 4.59375L28.4156 6.08125C28.1457 6.99823 27.6739 7.84315 27.0348 8.55405C26.3958 9.26496 25.6058 9.82382 24.7227 10.1897C23.8395 10.5555 22.8857 10.719 21.9312 10.6682C20.9767 10.6175 20.0456 10.3537 19.2062 9.89625L17.85 9.1525C12.2369 6.09875 6.09875 12.2369 9.15687 17.8456L9.89625 19.2062C11.8475 22.7937 9.99687 27.2606 6.08125 28.4156L4.59375 28.8531C-1.53125 30.66 -1.53125 39.34 4.59375 41.1469L6.08125 41.5844C6.99823 41.8543 7.84315 42.3261 8.55405 42.9652C9.26496 43.6042 9.82382 44.3942 10.1897 45.2773C10.5555 46.1605 10.719 47.1143 10.6682 48.0688C10.6175 49.0233 10.3537 49.9544 9.89625 50.7937L9.1525 52.15C6.09875 57.7631 12.2369 63.9012 17.8456 60.8431L19.2062 60.1037C20.0456 59.6463 20.9767 59.3825 21.9312 59.3318C22.8857 59.281 23.8395 59.4445 24.7227 59.8103C25.6058 60.1762 26.3958 60.735 27.0348 61.4459C27.6739 62.1569 28.1457 63.0018 28.4156 63.9187L28.8531 65.4062C30.66 71.5312 39.34 71.5312 41.1469 65.4062L41.5844 63.9187C41.8543 63.0018 42.3261 62.1569 42.9652 61.4459C43.6042 60.735 44.3942 60.1762 45.2773 59.8103C46.1605 59.4445 47.1143 59.281 48.0688 59.3318C49.0233 59.3825 49.9544 59.6463 50.7937 60.1037L52.15 60.8475C57.7631 63.9013 63.9012 57.7631 60.8431 52.1544L60.1037 50.7937C59.6463 49.9544 59.3825 49.0233 59.3318 48.0688C59.281 47.1143 59.4445 46.1605 59.8103 45.2773C60.1762 44.3942 60.735 43.6042 61.4459 42.9652C62.1569 42.3261 63.0018 41.8543 63.9187 41.5844L65.4062 41.1469C71.5312 39.34 71.5312 30.66 65.4062 28.8531L63.9187 28.4156C63.0018 28.1457 62.1569 27.6739 61.4459 27.0348C60.735 26.3958 60.1762 25.6058 59.8103 24.7227C59.4445 23.8395 59.281 22.8857 59.3318 21.9312C59.3825 20.9767 59.6463 20.0456 60.1037 19.2062L60.8475 17.85C63.9013 12.2369 57.7631 6.09875 52.1544 9.15687L50.7937 9.89625C49.9544 10.3537 49.0233 10.6175 48.0688 10.6682C47.1143 10.719 46.1605 10.5555 45.2773 10.1897C44.3942 9.82382 43.6042 9.26496 42.9652 8.55405C42.3261 7.84315 41.8543 6.99823 41.5844 6.08125L41.1469 4.59375V4.59375ZM35 47.8188C38.3997 47.8188 41.6602 46.4682 44.0642 44.0642C46.4682 41.6602 47.8188 38.3997 47.8188 35C47.8188 31.6003 46.4682 28.3398 44.0642 25.9358C41.6602 23.5318 38.3997 22.1813 35 22.1813C31.6014 22.1813 28.342 23.5313 25.9389 25.9345C23.5357 28.3377 22.1856 31.597 22.1856 34.9956C22.1856 38.3942 23.5357 41.6536 25.9389 44.0568C28.342 46.4599 31.6014 47.81 35 47.81V47.8188Z" fill="#151515"/>
</svg>
