<svg width="14" height="14" viewBox="0 0 14 14" fill="none" xmlns="http://www.w3.org/2000/svg">
<path fill-rule="evenodd" clip-rule="evenodd" d="M3.59612 13.5415H0.871521V4.78174H3.59612V13.5415ZM2.24847 3.58056C1.81878 3.58056 1.44769 3.42431 1.13519 3.11181C0.822692 2.79931 0.666443 2.42822 0.666443 1.99853C0.666443 1.56884 0.822692 1.19775 1.13519 0.885253C1.44769 0.572753 1.81878 0.416504 2.24847 0.416504C2.67816 0.416504 3.04925 0.572753 3.36175 0.885253C3.67425 1.19775 3.8305 1.56884 3.8305 1.99853C3.8305 2.42822 3.67425 2.79931 3.36175 3.11181C3.04925 3.42431 2.67816 3.58056 2.24847 3.58056ZM13.7915 13.5415H11.0669V9.26412C11.0669 8.561 11.0083 8.05318 10.8911 7.74068C10.6763 7.21334 10.2563 6.94967 9.63134 6.94967C9.00634 6.94967 8.56689 7.18405 8.31298 7.65279C8.11767 8.00436 8.02001 8.52193 8.02001 9.20552V13.5415H5.32471V4.78171H7.93212V5.98288H7.96142C8.15673 5.59225 8.46923 5.26999 8.89892 5.01608C9.36767 4.70358 9.91454 4.54733 10.5395 4.54733C11.8091 4.54733 12.6977 4.94772 13.2055 5.7485C13.5962 6.39303 13.7915 7.38912 13.7915 8.73678V13.5415Z" fill="#1E1E1E"/>
</svg>
