<svg width="70" height="70" viewBox="0 0 70 70" fill="none" xmlns="http://www.w3.org/2000/svg">
<path d="M35 0C15.701 0 0 15.701 0 35C0 54.299 15.701 70 35 70C54.299 70 70 54.299 70 35C70 15.701 54.299 0 35 0ZM35 63C19.5615 63 7 50.4385 7 35C7 19.5615 19.5615 7 35 7C50.4385 7 63 19.5615 63 35C63 50.4385 50.4385 63 35 63Z" fill="#151515"/>
<path d="M22.75 35C25.6495 35 28 32.6495 28 29.75C28 26.8505 25.6495 24.5 22.75 24.5C19.8505 24.5 17.5 26.8505 17.5 29.75C17.5 32.6495 19.8505 35 22.75 35Z" fill="#151515"/>
<path d="M47.2255 34.951C50.1115 34.951 52.451 32.6115 52.451 29.7255C52.451 26.8395 50.1115 24.5 47.2255 24.5C44.3395 24.5 42 26.8395 42 29.7255C42 32.6115 44.3395 34.951 47.2255 34.951Z" fill="#151515"/>
<path d="M35 42C24.5 42 21 52.5 21 52.5H49C49 52.5 45.5 42 35 42Z" fill="#151515"/>
</svg>
