<svg width="16" height="14" viewBox="0 0 16 14" fill="none" xmlns="http://www.w3.org/2000/svg">
<path fill-rule="evenodd" clip-rule="evenodd" d="M14.0658 2.76088C14.7013 2.38 15.1892 1.7769 15.419 1.05832C14.8244 1.41094 14.1658 1.66706 13.4648 1.80511C12.9034 1.207 12.1036 0.833252 11.2185 0.833252C9.51888 0.833252 8.14096 2.21112 8.14096 3.91061C8.14096 4.15181 8.16822 4.38669 8.22068 4.61192C5.66301 4.48359 3.39543 3.25841 1.8776 1.39657C1.6127 1.85108 1.46094 2.37972 1.46094 2.9437C1.46094 4.01135 2.00428 4.9533 2.83003 5.50515C2.32553 5.48918 1.85104 5.35075 1.43608 5.12026C1.43586 5.1331 1.43586 5.14599 1.43586 5.15894C1.43586 6.65 2.49666 7.89382 3.90448 8.1765C3.64622 8.24684 3.37436 8.28442 3.09366 8.28442C2.89537 8.28442 2.70257 8.26516 2.51471 8.22922C2.90629 9.45187 4.0428 10.3416 5.38945 10.3664C4.33623 11.1918 3.00928 11.6838 1.56749 11.6838C1.31911 11.6838 1.07413 11.6693 0.833374 11.6408C2.19527 12.514 3.81291 13.0234 5.55081 13.0234C11.2113 13.0234 14.3067 8.33413 14.3067 4.26747C14.3067 4.13403 14.3037 4.00131 14.2978 3.86935C14.899 3.43547 15.4208 2.89344 15.8334 2.2763C15.2815 2.52106 14.6884 2.68648 14.0658 2.76088Z" fill="#1E1E1E"/>
</svg>
