<svg width="15" height="11" viewBox="0 0 15 11" fill="none" xmlns="http://www.w3.org/2000/svg">
<path fill-rule="evenodd" clip-rule="evenodd" d="M14.1823 1.64575C14.3038 2.1145 14.3906 2.8263 14.4427 3.78116L14.4687 5.08324L14.4427 6.38532C14.3906 7.35754 14.3038 8.07802 14.1823 8.54677C14.0955 8.84191 13.9392 9.10233 13.7135 9.32802C13.4878 9.55371 13.2187 9.70996 12.9062 9.79677C12.4548 9.9183 11.3958 10.0051 9.72915 10.0572L7.35936 10.0832L4.98957 10.0572C3.32291 10.0051 2.26388 9.9183 1.8125 9.79677C1.5 9.70996 1.2309 9.55371 1.00521 9.32802C0.779513 9.10233 0.623263 8.84191 0.536458 8.54677C0.41493 8.07802 0.328125 7.35754 0.276042 6.38532L0.25 5.08324C0.25 4.7013 0.25868 4.26727 0.276042 3.78116C0.328125 2.8263 0.41493 2.1145 0.536458 1.64575C0.623263 1.33325 0.779513 1.06415 1.00521 0.838458C1.2309 0.612764 1.5 0.456515 1.8125 0.36971C2.26388 0.248182 3.32291 0.161377 4.98957 0.109294L7.35936 0.083252L9.72915 0.109294C11.3958 0.161377 12.4548 0.248182 12.9062 0.36971C13.2187 0.456515 13.4878 0.612764 13.7135 0.838458C13.9392 1.06415 14.0955 1.33325 14.1823 1.64575ZM5.901 7.21863L9.62495 5.08322L5.901 2.97385V7.21863Z" fill="#1E1E1E"/>
</svg>
