<svg width="2906" height="522" viewBox="0 0 2906 522" fill="none" xmlns="http://www.w3.org/2000/svg">
<path d="M0 0L48.4333 3.99467C96.8667 7.84 193.733 16.0533 290.6 19.8987C387.467 23.8933 484.333 16.4267 581.2 28.3733C678.067 40.32 774.933 51.1467 871.8 51.1467C968.667 51.1467 1065.53 40.32 1162.4 28.3733C1259.27 16.4267 1356.13 16.4267 1404.57 16.4267H1453V112H1404.57C1356.13 112 1259.27 112 1162.4 112C1065.53 112 968.667 112 871.8 112C774.933 112 678.067 112 581.2 112C484.333 112 387.467 112 290.6 112C193.733 112 96.8667 112 48.4333 112H0V0Z" fill="#F8F8F8"/>
<path d="M0 481.798L48.4333 486.714C96.8667 491.446 193.733 501.554 290.6 496.5C387.467 491.446 484.333 472.149 581.2 469.53C678.067 467.095 774.933 481.798 871.8 479.363C968.667 476.744 1065.53 457.447 1162.4 457.309C1259.27 457.447 1356.13 476.744 1404.57 486.714L1453 496.5V88H1404.57C1356.13 88 1259.27 88 1162.4 88C1065.53 88 968.667 88 871.8 88C774.933 88 678.067 88 581.2 88C484.333 88 387.467 88 290.6 88C193.733 88 96.8667 88 48.4333 88H0V481.798Z" fill="#F8F8F8"/>
<path d="M1453 15L1501.43 18.9947C1549.87 22.84 1646.73 31.0533 1743.6 34.8987C1840.47 38.8933 1937.33 31.4267 2034.2 43.3733C2131.07 55.32 2227.93 66.1467 2324.8 66.1467C2421.67 66.1467 2518.53 55.32 2615.4 43.3733C2712.27 31.4267 2809.13 31.4267 2857.57 31.4267H2906V127H2857.57C2809.13 127 2712.27 127 2615.4 127C2518.53 127 2421.67 127 2324.8 127C2227.93 127 2131.07 127 2034.2 127C1937.33 127 1840.47 127 1743.6 127C1646.73 127 1549.87 127 1501.43 127H1453V15Z" fill="#F8F8F8"/>
<path d="M1453 496.298L1501.43 501.214C1549.87 505.946 1646.73 516.054 1743.6 511C1840.47 505.946 1937.33 486.649 2034.2 484.03C2131.07 481.595 2227.93 496.298 2324.8 493.863C2421.67 491.244 2518.53 471.947 2615.4 471.809C2712.27 471.947 2809.13 491.244 2857.57 501.214L2906 511V103H2857.57C2809.13 103 2712.27 103 2615.4 103C2518.53 103 2421.67 103 2324.8 103C2227.93 103 2131.07 103 2034.2 103C1937.33 103 1840.47 103 1743.6 103C1646.73 103 1549.87 103 1501.43 103H1453V496.298Z" fill="#F8F8F8"/>
</svg>
